<svg width="128" height="128" viewBox="0 0 128 128" fill="none" xmlns="http://www.w3.org/2000/svg">
<path d="M63.6001 118.8C35.7001 118.8 5.6001 101.3 5.6001 62.9C5.6001 24.5 35.7001 7 63.6001 7C79.1001 7 93.4001 12.1 104 21.4C115.5 31.6 121.6 46 121.6 62.9C121.6 79.8 115.5 94.1 104 104.3C93.4001 113.6 79.0001 118.8 63.6001 118.8Z" fill="url(#paint0_radial_222_2159)"/>
<path d="M111.49 29.67C116.82 38.27 119.6 48.51 119.6 59.9C119.6 76.8 113.5 91.1 102 101.3C91.3999 110.6 76.9999 115.8 61.5999 115.8C43.5399 115.8 24.5999 108.45 13.4199 92.86C24.1799 110.52 44.4199 118.8 63.5999 118.8C78.9999 118.8 93.3999 113.6 104 104.3C115.5 94.1001 121.6 79.8 121.6 62.9C121.6 50.16 118.13 38.84 111.49 29.67Z" fill="#2AAE74"/>
<path d="M64 87.15C74.82 87.15 81.83 95.07 83.65 98.72C84.35 100.13 84.39 101.3 83.79 101.85C83.16 102.26 82.34 102.26 81.71 101.85C81.4 101.7 81.09 101.53 80.81 101.33C75.9101 97.8184 70.0332 95.93 64.005 95.93C57.9767 95.93 52.0999 97.8184 47.2 101.33C46.92 101.53 46.62 101.7 46.3 101.85C45.67 102.27 44.85 102.27 44.22 101.85C43.62 101.3 43.66 100.13 44.36 98.72C46.17 95.08 53.18 87.15 64 87.15ZM27.39 39.77C25.19 40.16 25.08 43.36 27.48 43.47C32.78 43.55 37.9 41.59 41.8 38C43.2823 36.7245 44.5369 35.2062 45.51 33.51C46.09 32.68 45.89 31.54 45.07 30.95C44.25 30.36 43.1 30.57 42.51 31.39L42.41 31.49C38.48 35.88 33.19 38.79 27.39 39.77ZM86.12 31.52L86.02 31.42C85.7396 31.0215 85.3128 30.7504 84.8329 30.666C84.3531 30.5817 83.8594 30.691 83.46 30.97C83.2623 31.1086 83.094 31.2849 82.9647 31.4889C82.8355 31.6929 82.7479 31.9204 82.707 32.1584C82.6661 32.3963 82.6727 32.64 82.7264 32.8754C82.7801 33.1108 82.8799 33.3333 83.02 33.53C84 35.22 85.26 36.73 86.75 38C90.65 41.59 95.77 43.54 101.07 43.45C103.47 43.34 103.36 40.14 101.15 39.75C95.35 38.78 90.06 35.88 86.12 31.52Z" fill="#422B0D"/>
<path d="M19.52 107C11.06 107 4.52002 98.79 4.52002 91.76C4.52002 86.82 6.73002 81.09 9.86002 73.15C10.25 71.98 10.77 70.8 11.29 69.5C12.78 65.78 14.09 61.75 16.09 58.26C16.3951 57.7136 16.8404 57.2585 17.3801 56.9417C17.9198 56.6249 18.5342 56.4579 19.16 56.4579C19.7858 56.4579 20.4003 56.6249 20.9399 56.9417C21.4796 57.2585 21.925 57.7136 22.23 58.26C24.09 61.69 25.37 65.4 27.3 69.73C32.77 81.97 34.3 86.92 34.3 91.86C34.49 98.83 27.85 107 19.52 107Z" fill="#858585"/>
<path d="M28.6699 97.6501C26.7599 100.65 22.4199 100.05 22.4199 95.1401C22.4199 92.0001 23.0599 75.8801 25.7599 78.1401C30.1399 81.8101 31.3899 93.4701 28.6699 97.6501Z" fill="#81D4FA"/>
<path d="M44.6699 54.9399C40.4799 54.9399 36.6699 58.4799 36.6699 64.3599C36.6699 70.2399 40.4799 73.7699 44.6699 73.7699C48.8599 73.7699 52.6699 70.2299 52.6699 64.3599C52.6699 58.4899 48.8599 54.9399 44.6699 54.9399Z" fill="#422B0D"/>
<path d="M44.2801 58.87C43.5954 58.5443 42.8097 58.5023 42.0941 58.7533C41.3786 59.0043 40.7913 59.5279 40.4601 60.21C39.9301 61.32 40.1701 62.65 41.0601 63.51C42.4801 64.19 44.1901 63.59 44.8801 62.17C45.4101 61.06 45.1701 59.73 44.2801 58.87Z" fill="#896024"/>
<path d="M83 54.9399C78.81 54.9399 75 58.4799 75 64.3599C75 70.2399 78.81 73.7699 83 73.7699C87.19 73.7699 91 70.2299 91 64.3599C91 58.4899 87.21 54.9399 83 54.9399Z" fill="#422B0D"/>
<path d="M82.63 58.87C81.9452 58.5443 81.1595 58.5023 80.444 58.7533C79.7285 59.0043 79.1411 59.5279 78.81 60.21C78.28 61.32 78.52 62.65 79.41 63.51C80.83 64.19 82.54 63.59 83.23 62.17C83.76 61.06 83.52 59.73 82.63 58.87Z" fill="#896024"/>
<defs>
<radialGradient id="paint0_radial_222_2159" cx="0" cy="0" r="1" gradientUnits="userSpaceOnUse" gradientTransform="translate(63.6001 62.9) scale(56.96)">
<stop offset="0.5" stop-color="#2793EB"/>
<stop offset="0.92" stop-color="#2AAE74"/>
<stop offset="1" stop-color="#2AAE74"/>
</radialGradient>
</defs>
</svg>
